<?xml version="1.0" encoding="UTF-8" standalone="no"?><svg xmlns="http://www.w3.org/2000/svg" xmlns:xlink="http://www.w3.org/1999/xlink" contentScriptType="application/ecmascript" contentStyleType="text/css" height="336px" preserveAspectRatio="none" style="width:543px;height:336px;" version="1.1" viewBox="0 0 543 336" width="543px" zoomAndPan="magnify"><defs><filter height="300%" id="f16e8ro508w0j7" width="300%" x="-1" y="-1"><feGaussianBlur result="blurOut" stdDeviation="2.0"/><feColorMatrix in="blurOut" result="blurOut2" type="matrix" values="0 0 0 0 0 0 0 0 0 0 0 0 0 0 0 0 0 0 .4 0"/><feOffset dx="4.0" dy="4.0" in="blurOut2" result="blurOut3"/><feBlend in="SourceGraphic" in2="blurOut3" mode="normal"/></filter></defs><g><!--class DocumentDbModel--><rect fill="#F8F8F8" filter="url(#f16e8ro508w0j7)" height="48" id="DocumentDbModel" style="stroke: #383838; stroke-width: 1.5;" width="142" x="154.25" y="8"/><ellipse cx="169.25" cy="24" fill="#CDCDCD" rx="11" ry="11" style="stroke: #383838; stroke-width: 1.0;"/><path d="M169.3633,19.3481 L168.2095,24.4199 L170.5254,24.4199 Z M167.8691,17.1069 L170.8657,17.1069 L174.2109,29.5 L171.7622,29.5 L170.9985,26.437 L167.7197,26.437 L166.9727,29.5 L164.5239,29.5 Z "/><text fill="#000000" font-family="sans-serif" font-size="12" font-style="italic" lengthAdjust="spacingAndGlyphs" textLength="110" x="183.25" y="28.5352">DocumentDbModel</text><line style="stroke: #383838; stroke-width: 1.5;" x1="155.25" x2="295.25" y1="40" y2="40"/><line style="stroke: #383838; stroke-width: 1.5;" x1="155.25" x2="295.25" y1="48" y2="48"/><!--class DocumentDbVersionedModel--><rect fill="#F8F8F8" filter="url(#f16e8ro508w0j7)" height="48" id="DocumentDbVersionedModel" style="stroke: #383838; stroke-width: 1.5;" width="200" x="332.25" y="136"/><ellipse cx="347.25" cy="152" fill="#CDCDCD" rx="11" ry="11" style="stroke: #383838; stroke-width: 1.0;"/><path d="M347.3633,147.3481 L346.2095,152.4199 L348.5254,152.4199 Z M345.8691,145.1069 L348.8657,145.1069 L352.2109,157.5 L349.7622,157.5 L348.9985,154.437 L345.7197,154.437 L344.9727,157.5 L342.5239,157.5 Z "/><text fill="#000000" font-family="sans-serif" font-size="12" font-style="italic" lengthAdjust="spacingAndGlyphs" textLength="168" x="361.25" y="156.5352">DocumentDbVersionedModel</text><line style="stroke: #383838; stroke-width: 1.5;" x1="333.25" x2="531.25" y1="168" y2="168"/><line style="stroke: #383838; stroke-width: 1.5;" x1="333.25" x2="531.25" y1="176" y2="176"/><!--class Message--><rect fill="#F8F8F8" filter="url(#f16e8ro508w0j7)" height="86.8652" id="Message" style="stroke: #383838; stroke-width: 1.5;" width="143" x="154" y="116.5"/><ellipse cx="196.45" cy="132.5" fill="#C2C2C2" rx="11" ry="11" style="stroke: #383838; stroke-width: 1.0;"/><path d="M199.4231,138.1431 Q198.8421,138.4419 198.2029,138.5913 Q197.5638,138.7407 196.8582,138.7407 Q194.3514,138.7407 193.0315,137.0889 Q191.7117,135.437 191.7117,132.3159 Q191.7117,129.1865 193.0315,127.5347 Q194.3514,125.8828 196.8582,125.8828 Q197.5638,125.8828 198.2112,126.0322 Q198.8587,126.1816 199.4231,126.4805 L199.4231,129.2031 Q198.7923,128.6221 198.1988,128.3523 Q197.6053,128.0825 196.9744,128.0825 Q195.6297,128.0825 194.9449,129.1492 Q194.2601,130.2158 194.2601,132.3159 Q194.2601,134.4077 194.9449,135.4744 Q195.6297,136.541 196.9744,136.541 Q197.6053,136.541 198.1988,136.2712 Q198.7923,136.0015 199.4231,135.4204 Z "/><text fill="#000000" font-family="sans-serif" font-size="12" lengthAdjust="spacingAndGlyphs" textLength="50" x="216.55" y="137.0352">Message</text><line style="stroke: #383838; stroke-width: 1.5;" x1="155" x2="296" y1="148.5" y2="148.5"/><ellipse cx="165" cy="160.4775" fill="none" rx="3" ry="3" style="stroke: #545454; stroke-width: 1.0;"/><text fill="#000000" font-family="sans-serif" font-size="11" lengthAdjust="spacingAndGlyphs" textLength="40" x="174" y="163.1348">UUID id</text><ellipse cx="165" cy="173.4326" fill="none" rx="3" ry="3" style="stroke: #545454; stroke-width: 1.0;"/><text fill="#000000" font-family="sans-serif" font-size="11" lengthAdjust="spacingAndGlyphs" textLength="108" x="174" y="176.0898">UUID organizationId</text><ellipse cx="165" cy="186.3877" fill="none" rx="3" ry="3" style="stroke: #545454; stroke-width: 1.0;"/><text fill="#000000" font-family="sans-serif" font-size="11" lengthAdjust="spacingAndGlyphs" textLength="117" x="174" y="189.0449">FiscalCode fiscalCode</text><line style="stroke: #383838; stroke-width: 1.5;" x1="155" x2="296" y1="195.3652" y2="195.3652"/><!--class Notification--><rect fill="#F8F8F8" filter="url(#f16e8ro508w0j7)" height="73.9102" id="Notification" style="stroke: #383838; stroke-width: 1.5;" width="113" x="6" y="123"/><ellipse cx="28.65" cy="139" fill="#C2C2C2" rx="11" ry="11" style="stroke: #383838; stroke-width: 1.0;"/><path d="M31.6231,144.6431 Q31.0421,144.9419 30.4029,145.0913 Q29.7638,145.2407 29.0582,145.2407 Q26.5514,145.2407 25.2315,143.5889 Q23.9117,141.937 23.9117,138.8159 Q23.9117,135.6865 25.2315,134.0347 Q26.5514,132.3828 29.0582,132.3828 Q29.7638,132.3828 30.4112,132.5322 Q31.0587,132.6816 31.6231,132.9805 L31.6231,135.7031 Q30.9923,135.1221 30.3988,134.8523 Q29.8053,134.5825 29.1744,134.5825 Q27.8297,134.5825 27.1449,135.6492 Q26.4601,136.7158 26.4601,138.8159 Q26.4601,140.9077 27.1449,141.9744 Q27.8297,143.041 29.1744,143.041 Q29.8053,143.041 30.3988,142.7712 Q30.9923,142.5015 31.6231,141.9204 Z "/><text fill="#000000" font-family="sans-serif" font-size="12" lengthAdjust="spacingAndGlyphs" textLength="64" x="44.35" y="143.5352">Notification</text><line style="stroke: #383838; stroke-width: 1.5;" x1="7" x2="118" y1="155" y2="155"/><ellipse cx="17" cy="166.9775" fill="none" rx="3" ry="3" style="stroke: #545454; stroke-width: 1.0;"/><text fill="#000000" font-family="sans-serif" font-size="11" lengthAdjust="spacingAndGlyphs" textLength="40" x="26" y="169.6348">UUID id</text><ellipse cx="17" cy="179.9326" fill="none" rx="3" ry="3" style="stroke: #545454; stroke-width: 1.0;"/><text fill="#000000" font-family="sans-serif" font-size="11" lengthAdjust="spacingAndGlyphs" textLength="87" x="26" y="182.5898">UUID messageId</text><line style="stroke: #383838; stroke-width: 1.5;" x1="7" x2="118" y1="188.9102" y2="188.9102"/><!--class Organization--><rect fill="#F8F8F8" filter="url(#f16e8ro508w0j7)" height="60.9551" id="Organization" style="stroke: #383838; stroke-width: 1.5;" width="105" x="197" y="264.5"/><ellipse cx="212" cy="280.5" fill="#C2C2C2" rx="11" ry="11" style="stroke: #383838; stroke-width: 1.0;"/><path d="M214.9731,286.1431 Q214.3921,286.4419 213.7529,286.5913 Q213.1138,286.7407 212.4082,286.7407 Q209.9014,286.7407 208.5815,285.0889 Q207.2617,283.437 207.2617,280.3159 Q207.2617,277.1865 208.5815,275.5347 Q209.9014,273.8828 212.4082,273.8828 Q213.1138,273.8828 213.7612,274.0322 Q214.4087,274.1816 214.9731,274.4805 L214.9731,277.2031 Q214.3423,276.6221 213.7488,276.3523 Q213.1553,276.0825 212.5244,276.0825 Q211.1797,276.0825 210.4949,277.1492 Q209.8101,278.2158 209.8101,280.3159 Q209.8101,282.4077 210.4949,283.4744 Q211.1797,284.541 212.5244,284.541 Q213.1553,284.541 213.7488,284.2712 Q214.3423,284.0015 214.9731,283.4204 Z "/><text fill="#000000" font-family="sans-serif" font-size="12" lengthAdjust="spacingAndGlyphs" textLength="73" x="226" y="285.0352">Organization</text><line style="stroke: #383838; stroke-width: 1.5;" x1="198" x2="301" y1="296.5" y2="296.5"/><ellipse cx="208" cy="308.4775" fill="none" rx="3" ry="3" style="stroke: #545454; stroke-width: 1.0;"/><text fill="#000000" font-family="sans-serif" font-size="11" lengthAdjust="spacingAndGlyphs" textLength="40" x="217" y="311.1348">UUID id</text><line style="stroke: #383838; stroke-width: 1.5;" x1="198" x2="301" y1="317.4551" y2="317.4551"/><!--class Profile--><rect fill="#F8F8F8" filter="url(#f16e8ro508w0j7)" height="60.9551" id="Profile" style="stroke: #383838; stroke-width: 1.5;" width="143" x="361" y="264.5"/><ellipse cx="410.25" cy="280.5" fill="#C2C2C2" rx="11" ry="11" style="stroke: #383838; stroke-width: 1.0;"/><path d="M413.2231,286.1431 Q412.6421,286.4419 412.0029,286.5913 Q411.3638,286.7407 410.6582,286.7407 Q408.1514,286.7407 406.8315,285.0889 Q405.5117,283.437 405.5117,280.3159 Q405.5117,277.1865 406.8315,275.5347 Q408.1514,273.8828 410.6582,273.8828 Q411.3638,273.8828 412.0112,274.0322 Q412.6587,274.1816 413.2231,274.4805 L413.2231,277.2031 Q412.5923,276.6221 411.9988,276.3523 Q411.4053,276.0825 410.7744,276.0825 Q409.4297,276.0825 408.7449,277.1492 Q408.0601,278.2158 408.0601,280.3159 Q408.0601,282.4077 408.7449,283.4744 Q409.4297,284.541 410.7744,284.541 Q411.4053,284.541 411.9988,284.2712 Q412.5923,284.0015 413.2231,283.4204 Z "/><text fill="#000000" font-family="sans-serif" font-size="12" lengthAdjust="spacingAndGlyphs" textLength="36" x="430.75" y="285.0352">Profile</text><line style="stroke: #383838; stroke-width: 1.5;" x1="362" x2="503" y1="296.5" y2="296.5"/><ellipse cx="372" cy="308.4775" fill="none" rx="3" ry="3" style="stroke: #545454; stroke-width: 1.0;"/><text fill="#000000" font-family="sans-serif" font-size="11" lengthAdjust="spacingAndGlyphs" textLength="117" x="381" y="311.1348">FiscalCode fiscalCode</text><line style="stroke: #383838; stroke-width: 1.5;" x1="362" x2="503" y1="317.4551" y2="317.4551"/><!--link DocumentDbModel to DocumentDbVersionedModel--><path d="M280.449,66.6 C316.368,88.463 362.29,116.416 394.174,135.823 " fill="none" id="DocumentDbModel-DocumentDbVersionedModel" style="stroke: #383838; stroke-width: 1.0;"/><polygon fill="none" points="276.661,72.489,263.217,56.11,283.941,60.53,276.661,72.489" style="stroke: #383838; stroke-width: 1.0;"/><!--link DocumentDbModel to Message--><path d="M225.25,76.321 C225.25,89.288 225.25,103.491 225.25,116.411 " fill="none" id="DocumentDbModel-Message" style="stroke: #383838; stroke-width: 1.0;"/><polygon fill="none" points="218.25,76.11,225.25,56.11,232.25,76.11,218.25,76.11" style="stroke: #383838; stroke-width: 1.0;"/><!--link DocumentDbModel to Notification--><path d="M179.492,68.371 C157.457,85.404 131.075,105.798 108.922,122.922 " fill="none" id="DocumentDbModel-Notification" style="stroke: #383838; stroke-width: 1.0;"/><polygon fill="none" points="175.249,62.804,195.353,56.11,183.811,73.88,175.249,62.804" style="stroke: #383838; stroke-width: 1.0;"/><!--link DocumentDbVersionedModel to Organization--><path d="M384.157,195.953 C354.884,217.228 317.895,244.1103 290.055,264.3436 " fill="none" id="DocumentDbVersionedModel-Organization" style="stroke: #383838; stroke-width: 1.0;"/><polygon fill="none" points="380.08,190.263,400.374,184.167,388.311,201.588,380.08,190.263" style="stroke: #383838; stroke-width: 1.0;"/><!--link DocumentDbVersionedModel to Profile--><path d="M432.25,204.176 C432.25,223.759 432.25,246.4329 432.25,264.1004 " fill="none" id="DocumentDbVersionedModel-Profile" style="stroke: #383838; stroke-width: 1.0;"/><polygon fill="none" points="425.25,204.167,432.25,184.167,439.25,204.167,425.25,204.167" style="stroke: #383838; stroke-width: 1.0;"/><!--link Message to Organization--><path d="M232.976,203.814 C235.731,219.085 238.833,236.2721 241.584,251.515 " fill="none" id="Message-Organization" style="stroke: #383838; stroke-width: 1.0;"/><polygon fill="#FFFFFF" points="243.893,264.3126,246.7639,257.6976,241.7619,252.5033,238.891,259.1183,243.893,264.3126" style="stroke: #383838; stroke-width: 1.0;"/><text fill="#000000" font-family="sans-serif" font-size="13" lengthAdjust="spacingAndGlyphs" textLength="34" x="196.4303" y="223.9518">many</text><text fill="#000000" font-family="sans-serif" font-size="13" lengthAdjust="spacingAndGlyphs" textLength="8" x="232.9373" y="253.6886">1</text><!--link Notification to Message--><path d="M118.6,160 C125.89,160 133.181,160 140.471,160 " fill="none" id="Notification-Message" style="stroke: #383838; stroke-width: 1.0;"/><polygon fill="#FFFFFF" points="153.594,160,147.594,156,141.594,160,147.594,164,153.594,160" style="stroke: #383838; stroke-width: 1.0;"/><text fill="#000000" font-family="sans-serif" font-size="13" lengthAdjust="spacingAndGlyphs" textLength="5" x="126.8406" y="155.4012">?</text><text fill="#000000" font-family="sans-serif" font-size="13" lengthAdjust="spacingAndGlyphs" textLength="8" x="137.9849" y="155.857">1</text><!--
@startuml

skinparam monochrome true

abstract class DocumentDbModel

abstract class DocumentDbVersionedModel

class Message {
  +UUID id
  +UUID organizationId
  +FiscalCode fiscalCode
}

class Notification {
  +UUID id
  +UUID messageId
}

class Organization {
  +UUID id
}

class Profile {
  +FiscalCode fiscalCode
}

DocumentDbModel <|- - DocumentDbVersionedModel

DocumentDbModel <|- - Message

DocumentDbModel <|- - Notification

DocumentDbVersionedModel <|- - Organization

DocumentDbVersionedModel <|- - Profile

Organization "1" o-left- "many" Message
Message "1" o-left- "?" Notification

@enduml

PlantUML version 1.2017.15(Mon Jul 03 18:45:34 CEST 2017)
(GPL source distribution)
Java Runtime: Java(TM) SE Runtime Environment
JVM: Java HotSpot(TM) 64-Bit Server VM
Java Version: 1.8.0_66-b17
Operating System: Mac OS X
OS Version: 10.12.6
Default Encoding: US-ASCII
Language: en
Country: US
--></g></svg>